# xmcd
#
# Track frame offsets:
#	150
#	18060
#	36715
#	44902
#	63042
#	79750
#	96770
#	109065
#	124870
#	140022
#	157142
#	171655
#
# Disc length: 2492 seconds
#
# Revision: 5
# Processed by: cddbd v1.5.2PL0 Copyright (c) Steve Scherf et al.
# Submitted via: audiograbber 1.83.01
#
DISCID=ad09ba0c
DTITLE=Martina McBride - White Christmas
DYEAR=1999
DGENRE=Country
TTITLE0=Do You Hear What I Hear
TTITLE1=Have Yourself A Merry Little Christmas
TTITLE2=Let It Snow, Let It Snow, Let It Snow
TTITLE3=O Come All Ye Faithful
TTITLE4=The Christmas Song (Chestnuts Roasting On An Open Fire)
TTITLE5=O Holy Night
TTITLE6=Silver Bells
TTITLE7=Away In A Manger
TTITLE8=White Christmas
TTITLE9=What Child Is This
TTITLE10=I'll Be Home For Christmas
TTITLE11=Silent Night
EXTD=
EXTT0=
EXTT1=
EXTT2=
EXTT3=
EXTT4=
EXTT5=
EXTT6=
EXTT7=
EXTT8=
EXTT9=
EXTT10=
EXTT11=
PLAYORDER=
